<mxfile host="app.diagrams.net" agent="Mozilla/5.0 (Windows NT 10.0; Win64; x64) AppleWebKit/537.36 (KHTML, like Gecko) Chrome/136.0.0.0 Safari/537.36" version="27.0.6">
  <diagram name="Page-1" id="B8rw9gw-FpFqDdhhTvDL">
    <mxGraphModel dx="1389" dy="756" grid="1" gridSize="10" guides="1" tooltips="1" connect="1" arrows="1" fold="1" page="1" pageScale="1" pageWidth="827" pageHeight="1169" math="0" shadow="0">
      <root>
        <mxCell id="0" />
        <mxCell id="1" parent="0" />
        <mxCell id="aU81vMfRTdpEFrG1HCS1-10" value="Replace former with current names" style="shape=module;align=left;spacingLeft=20;align=center;verticalAlign=top;whiteSpace=wrap;html=1;fontSize=12;fontStyle=0" vertex="1" parent="1">
          <mxGeometry x="259" y="210" width="100" height="50" as="geometry" />
        </mxCell>
        <mxCell id="aU81vMfRTdpEFrG1HCS1-13" value="countries" style="html=1;dropTarget=0;whiteSpace=wrap;fillColor=#fff2cc;strokeColor=#d6b656;fontSize=12;fontStyle=0;spacingLeft=3;" vertex="1" parent="1">
          <mxGeometry x="293" y="65" width="110" height="60" as="geometry" />
        </mxCell>
        <mxCell id="aU81vMfRTdpEFrG1HCS1-14" value="" style="shape=module;jettyWidth=8;jettyHeight=4;fontSize=12;fontStyle=0;spacingLeft=3;" vertex="1" parent="aU81vMfRTdpEFrG1HCS1-13">
          <mxGeometry x="94" width="20" height="20" relative="1" as="geometry">
            <mxPoint x="-27" y="7" as="offset" />
          </mxGeometry>
        </mxCell>
        <mxCell id="aU81vMfRTdpEFrG1HCS1-15" value="former_names" style="html=1;dropTarget=0;whiteSpace=wrap;fillColor=#fff2cc;strokeColor=#d6b656;fontSize=12;fontStyle=0;spacingLeft=3;" vertex="1" parent="1">
          <mxGeometry x="180" y="65" width="110" height="60" as="geometry" />
        </mxCell>
        <mxCell id="aU81vMfRTdpEFrG1HCS1-16" value="" style="shape=module;jettyWidth=8;jettyHeight=4;fontSize=12;fontStyle=0;spacingLeft=3;" vertex="1" parent="aU81vMfRTdpEFrG1HCS1-15">
          <mxGeometry x="101" width="20" height="20" relative="1" as="geometry">
            <mxPoint x="-27" y="7" as="offset" />
          </mxGeometry>
        </mxCell>
        <mxCell id="aU81vMfRTdpEFrG1HCS1-17" value="goal_scorers" style="html=1;dropTarget=0;whiteSpace=wrap;fillColor=#fff2cc;strokeColor=#d6b656;fontSize=12;fontStyle=0;spacingLeft=3;" vertex="1" parent="1">
          <mxGeometry x="406" y="65" width="110" height="60" as="geometry" />
        </mxCell>
        <mxCell id="aU81vMfRTdpEFrG1HCS1-18" value="" style="shape=module;jettyWidth=8;jettyHeight=4;fontSize=12;fontStyle=0;spacingLeft=3;" vertex="1" parent="aU81vMfRTdpEFrG1HCS1-17">
          <mxGeometry x="93" width="20" height="20" relative="1" as="geometry">
            <mxPoint x="-27" y="7" as="offset" />
          </mxGeometry>
        </mxCell>
        <mxCell id="aU81vMfRTdpEFrG1HCS1-19" value="results" style="html=1;dropTarget=0;whiteSpace=wrap;fillColor=#fff2cc;strokeColor=#d6b656;fontSize=12;fontStyle=0;spacingLeft=3;" vertex="1" parent="1">
          <mxGeometry x="519" y="65" width="110" height="60" as="geometry" />
        </mxCell>
        <mxCell id="aU81vMfRTdpEFrG1HCS1-20" value="" style="shape=module;jettyWidth=8;jettyHeight=4;fontSize=12;fontStyle=0;spacingLeft=3;" vertex="1" parent="aU81vMfRTdpEFrG1HCS1-19">
          <mxGeometry x="90" width="20" height="20" relative="1" as="geometry">
            <mxPoint x="-27" y="7" as="offset" />
          </mxGeometry>
        </mxCell>
        <mxCell id="aU81vMfRTdpEFrG1HCS1-32" style="edgeStyle=orthogonalEdgeStyle;rounded=0;orthogonalLoop=1;jettySize=auto;html=1;exitX=0.5;exitY=1;exitDx=0;exitDy=0;entryX=1;entryY=0.5;entryDx=0;entryDy=0;fontSize=12;fontStyle=0" edge="1" parent="1" source="aU81vMfRTdpEFrG1HCS1-21" target="aU81vMfRTdpEFrG1HCS1-28">
          <mxGeometry relative="1" as="geometry" />
        </mxCell>
        <mxCell id="aU81vMfRTdpEFrG1HCS1-21" value="shootouts" style="html=1;dropTarget=0;whiteSpace=wrap;fillColor=#fff2cc;strokeColor=#d6b656;fontSize=12;fontStyle=0;spacingLeft=3;" vertex="1" parent="1">
          <mxGeometry x="632" y="65" width="110" height="60" as="geometry" />
        </mxCell>
        <mxCell id="aU81vMfRTdpEFrG1HCS1-22" value="" style="shape=module;jettyWidth=8;jettyHeight=4;fontSize=12;fontStyle=0;spacingLeft=3;" vertex="1" parent="aU81vMfRTdpEFrG1HCS1-21">
          <mxGeometry x="1" width="20" height="20" relative="1" as="geometry">
            <mxPoint x="-27" y="7" as="offset" />
          </mxGeometry>
        </mxCell>
        <mxCell id="aU81vMfRTdpEFrG1HCS1-28" value="Add missing countries from other tables" style="shape=module;align=left;spacingLeft=20;align=center;verticalAlign=top;whiteSpace=wrap;html=1;fontSize=12;fontStyle=0" vertex="1" parent="1">
          <mxGeometry x="510" y="210" width="100" height="50" as="geometry" />
        </mxCell>
        <mxCell id="aU81vMfRTdpEFrG1HCS1-30" style="edgeStyle=orthogonalEdgeStyle;rounded=0;orthogonalLoop=1;jettySize=auto;html=1;exitX=0.5;exitY=1;exitDx=0;exitDy=0;entryX=0;entryY=0;entryDx=0;entryDy=15;entryPerimeter=0;fontSize=12;fontStyle=0" edge="1" parent="1" source="aU81vMfRTdpEFrG1HCS1-17" target="aU81vMfRTdpEFrG1HCS1-28">
          <mxGeometry relative="1" as="geometry" />
        </mxCell>
        <mxCell id="aU81vMfRTdpEFrG1HCS1-65" style="edgeStyle=orthogonalEdgeStyle;rounded=0;orthogonalLoop=1;jettySize=auto;html=1;exitX=0.5;exitY=1;exitDx=0;exitDy=0;entryX=0.5;entryY=0;entryDx=0;entryDy=0;fontSize=12;fontStyle=0" edge="1" parent="1" source="aU81vMfRTdpEFrG1HCS1-43" target="aU81vMfRTdpEFrG1HCS1-45">
          <mxGeometry relative="1" as="geometry" />
        </mxCell>
        <mxCell id="aU81vMfRTdpEFrG1HCS1-43" value="Generate ids" style="shape=module;align=left;spacingLeft=20;align=center;verticalAlign=top;whiteSpace=wrap;html=1;fontSize=12;fontStyle=0" vertex="1" parent="1">
          <mxGeometry x="510" y="340" width="100" height="50" as="geometry" />
        </mxCell>
        <mxCell id="aU81vMfRTdpEFrG1HCS1-45" value="countries" style="html=1;dropTarget=0;whiteSpace=wrap;fillColor=#d5e8d4;strokeColor=#82b366;fontSize=12;fontStyle=0" vertex="1" parent="1">
          <mxGeometry x="505" y="460" width="110" height="60" as="geometry" />
        </mxCell>
        <mxCell id="aU81vMfRTdpEFrG1HCS1-46" value="" style="shape=module;jettyWidth=8;jettyHeight=4;fontSize=12;fontStyle=0" vertex="1" parent="aU81vMfRTdpEFrG1HCS1-45">
          <mxGeometry x="1" width="20" height="20" relative="1" as="geometry">
            <mxPoint x="-27" y="7" as="offset" />
          </mxGeometry>
        </mxCell>
        <mxCell id="aU81vMfRTdpEFrG1HCS1-48" value="results" style="html=1;dropTarget=0;whiteSpace=wrap;fillColor=#fff2cc;strokeColor=#d6b656;fontSize=12;fontStyle=0" vertex="1" parent="1">
          <mxGeometry x="359" y="460" width="110" height="60" as="geometry" />
        </mxCell>
        <mxCell id="aU81vMfRTdpEFrG1HCS1-49" value="" style="shape=module;jettyWidth=8;jettyHeight=4;fontSize=12;fontStyle=0" vertex="1" parent="aU81vMfRTdpEFrG1HCS1-48">
          <mxGeometry x="1" width="20" height="20" relative="1" as="geometry">
            <mxPoint x="-27" y="7" as="offset" />
          </mxGeometry>
        </mxCell>
        <mxCell id="aU81vMfRTdpEFrG1HCS1-64" style="edgeStyle=orthogonalEdgeStyle;rounded=0;orthogonalLoop=1;jettySize=auto;html=1;exitX=0.5;exitY=1;exitDx=0;exitDy=0;entryX=0.5;entryY=0;entryDx=0;entryDy=0;fontSize=12;fontStyle=0" edge="1" parent="1" source="aU81vMfRTdpEFrG1HCS1-50" target="aU81vMfRTdpEFrG1HCS1-58">
          <mxGeometry relative="1" as="geometry" />
        </mxCell>
        <mxCell id="aU81vMfRTdpEFrG1HCS1-50" value="Replace home &amp;amp; away names with ids" style="shape=module;align=left;spacingLeft=20;align=center;verticalAlign=top;whiteSpace=wrap;html=1;fontSize=12;fontStyle=0" vertex="1" parent="1">
          <mxGeometry x="505" y="550" width="105" height="60" as="geometry" />
        </mxCell>
        <mxCell id="aU81vMfRTdpEFrG1HCS1-51" style="edgeStyle=orthogonalEdgeStyle;rounded=0;orthogonalLoop=1;jettySize=auto;html=1;exitX=0.5;exitY=1;exitDx=0;exitDy=0;entryX=0;entryY=0;entryDx=0;entryDy=15;entryPerimeter=0;fontSize=12;fontStyle=0" edge="1" parent="1" source="aU81vMfRTdpEFrG1HCS1-45" target="aU81vMfRTdpEFrG1HCS1-50">
          <mxGeometry relative="1" as="geometry" />
        </mxCell>
        <mxCell id="aU81vMfRTdpEFrG1HCS1-52" style="edgeStyle=orthogonalEdgeStyle;rounded=0;orthogonalLoop=1;jettySize=auto;html=1;exitX=0.5;exitY=1;exitDx=0;exitDy=0;entryX=0;entryY=0;entryDx=0;entryDy=35;entryPerimeter=0;fontSize=12;fontStyle=0" edge="1" parent="1" source="aU81vMfRTdpEFrG1HCS1-48" target="aU81vMfRTdpEFrG1HCS1-50">
          <mxGeometry relative="1" as="geometry" />
        </mxCell>
        <mxCell id="aU81vMfRTdpEFrG1HCS1-62" style="edgeStyle=orthogonalEdgeStyle;rounded=0;orthogonalLoop=1;jettySize=auto;html=1;exitX=0.5;exitY=1;exitDx=0;exitDy=0;entryX=0.5;entryY=0;entryDx=0;entryDy=0;fontSize=12;fontStyle=0" edge="1" parent="1" source="aU81vMfRTdpEFrG1HCS1-58" target="aU81vMfRTdpEFrG1HCS1-60">
          <mxGeometry relative="1" as="geometry" />
        </mxCell>
        <mxCell id="aU81vMfRTdpEFrG1HCS1-58" value="Drop Null home or away" style="shape=module;align=left;spacingLeft=20;align=center;verticalAlign=top;whiteSpace=wrap;html=1;fontSize=12;fontStyle=0" vertex="1" parent="1">
          <mxGeometry x="505" y="640" width="105" height="60" as="geometry" />
        </mxCell>
        <mxCell id="aU81vMfRTdpEFrG1HCS1-60" value="games" style="html=1;dropTarget=0;whiteSpace=wrap;fillColor=#d5e8d4;strokeColor=#82b366;fontSize=12;fontStyle=0" vertex="1" parent="1">
          <mxGeometry x="510" y="720" width="110" height="60" as="geometry" />
        </mxCell>
        <mxCell id="aU81vMfRTdpEFrG1HCS1-61" value="" style="shape=module;jettyWidth=8;jettyHeight=4;fontSize=12;fontStyle=0" vertex="1" parent="aU81vMfRTdpEFrG1HCS1-60">
          <mxGeometry x="1" width="20" height="20" relative="1" as="geometry">
            <mxPoint x="-27" y="7" as="offset" />
          </mxGeometry>
        </mxCell>
        <mxCell id="aU81vMfRTdpEFrG1HCS1-66" value="goal_scorers" style="html=1;dropTarget=0;whiteSpace=wrap;fillColor=#fff2cc;strokeColor=#d6b656;fontSize=12;fontStyle=0" vertex="1" parent="1">
          <mxGeometry x="900.0000000000001" y="65" width="110" height="60" as="geometry" />
        </mxCell>
        <mxCell id="aU81vMfRTdpEFrG1HCS1-67" value="" style="shape=module;jettyWidth=8;jettyHeight=4;fontSize=12;fontStyle=0" vertex="1" parent="aU81vMfRTdpEFrG1HCS1-66">
          <mxGeometry x="1" width="20" height="20" relative="1" as="geometry">
            <mxPoint x="-27" y="7" as="offset" />
          </mxGeometry>
        </mxCell>
        <mxCell id="aU81vMfRTdpEFrG1HCS1-68" value="Find row where owngoal is False" style="shape=module;align=left;spacingLeft=20;align=center;verticalAlign=top;whiteSpace=wrap;html=1;fontSize=12;fontStyle=0" vertex="1" parent="1">
          <mxGeometry x="790.0100000000001" y="235" width="125" height="50" as="geometry" />
        </mxCell>
        <mxCell id="aU81vMfRTdpEFrG1HCS1-70" value="Select unique names" style="shape=module;align=left;spacingLeft=20;align=center;verticalAlign=top;whiteSpace=wrap;html=1;fontSize=12;fontStyle=0" vertex="1" parent="1">
          <mxGeometry x="790.0100000000001" y="340" width="125" height="50" as="geometry" />
        </mxCell>
        <mxCell id="aU81vMfRTdpEFrG1HCS1-72" value="Replace country names with ids" style="shape=module;align=left;spacingLeft=20;align=center;verticalAlign=top;whiteSpace=wrap;html=1;fontSize=12;fontStyle=0" vertex="1" parent="1">
          <mxGeometry x="790.0100000000001" y="455" width="125" height="50" as="geometry" />
        </mxCell>
        <mxCell id="aU81vMfRTdpEFrG1HCS1-74" style="edgeStyle=orthogonalEdgeStyle;rounded=0;orthogonalLoop=1;jettySize=auto;html=1;exitX=1;exitY=0.5;exitDx=0;exitDy=0;entryX=0;entryY=0;entryDx=0;entryDy=35;entryPerimeter=0;fontSize=12;fontStyle=0" edge="1" parent="1" source="aU81vMfRTdpEFrG1HCS1-45" target="aU81vMfRTdpEFrG1HCS1-72">
          <mxGeometry relative="1" as="geometry" />
        </mxCell>
        <mxCell id="aU81vMfRTdpEFrG1HCS1-82" style="edgeStyle=orthogonalEdgeStyle;rounded=0;orthogonalLoop=1;jettySize=auto;html=1;exitX=0.5;exitY=1;exitDx=0;exitDy=0;entryX=0.5;entryY=0;entryDx=0;entryDy=0;fontSize=12;fontStyle=0" edge="1" parent="1" source="aU81vMfRTdpEFrG1HCS1-76" target="aU81vMfRTdpEFrG1HCS1-80">
          <mxGeometry relative="1" as="geometry" />
        </mxCell>
        <mxCell id="aU81vMfRTdpEFrG1HCS1-76" value="Generate ids" style="shape=module;align=left;spacingLeft=20;align=center;verticalAlign=top;whiteSpace=wrap;html=1;fontSize=12;fontStyle=0" vertex="1" parent="1">
          <mxGeometry x="790.0100000000001" y="550" width="125" height="50" as="geometry" />
        </mxCell>
        <mxCell id="aU81vMfRTdpEFrG1HCS1-77" style="edgeStyle=orthogonalEdgeStyle;rounded=0;orthogonalLoop=1;jettySize=auto;html=1;exitX=0.5;exitY=1;exitDx=0;exitDy=0;entryX=0;entryY=0;entryDx=0;entryDy=15;entryPerimeter=0;fontSize=12;fontStyle=0" edge="1" parent="1" source="aU81vMfRTdpEFrG1HCS1-70" target="aU81vMfRTdpEFrG1HCS1-72">
          <mxGeometry relative="1" as="geometry" />
        </mxCell>
        <mxCell id="aU81vMfRTdpEFrG1HCS1-78" style="edgeStyle=orthogonalEdgeStyle;rounded=0;orthogonalLoop=1;jettySize=auto;html=1;exitX=0.5;exitY=1;exitDx=0;exitDy=0;entryX=0;entryY=0;entryDx=0;entryDy=15;entryPerimeter=0;fontSize=12;fontStyle=0" edge="1" parent="1" source="aU81vMfRTdpEFrG1HCS1-72" target="aU81vMfRTdpEFrG1HCS1-76">
          <mxGeometry relative="1" as="geometry" />
        </mxCell>
        <mxCell id="aU81vMfRTdpEFrG1HCS1-80" value="players" style="html=1;dropTarget=0;whiteSpace=wrap;fillColor=#d5e8d4;strokeColor=#82b366;fontSize=12;fontStyle=0" vertex="1" parent="1">
          <mxGeometry x="797.5100000000001" y="720" width="110" height="60" as="geometry" />
        </mxCell>
        <mxCell id="aU81vMfRTdpEFrG1HCS1-81" value="" style="shape=module;jettyWidth=8;jettyHeight=4;fontSize=12;fontStyle=0" vertex="1" parent="aU81vMfRTdpEFrG1HCS1-80">
          <mxGeometry x="1" width="20" height="20" relative="1" as="geometry">
            <mxPoint x="-27" y="7" as="offset" />
          </mxGeometry>
        </mxCell>
        <mxCell id="aU81vMfRTdpEFrG1HCS1-83" style="edgeStyle=orthogonalEdgeStyle;rounded=0;orthogonalLoop=1;jettySize=auto;html=1;exitX=0.5;exitY=1;exitDx=0;exitDy=0;entryX=0;entryY=0;entryDx=0;entryDy=15;entryPerimeter=0;fontSize=12;fontStyle=0" edge="1" parent="1" source="aU81vMfRTdpEFrG1HCS1-68" target="aU81vMfRTdpEFrG1HCS1-70">
          <mxGeometry relative="1" as="geometry" />
        </mxCell>
        <mxCell id="aU81vMfRTdpEFrG1HCS1-84" style="edgeStyle=orthogonalEdgeStyle;rounded=0;orthogonalLoop=1;jettySize=auto;html=1;exitX=0.5;exitY=1;exitDx=0;exitDy=0;entryX=0;entryY=0;entryDx=0;entryDy=15;entryPerimeter=0;fontSize=12;fontStyle=0" edge="1" parent="1" source="aU81vMfRTdpEFrG1HCS1-66" target="aU81vMfRTdpEFrG1HCS1-68">
          <mxGeometry relative="1" as="geometry" />
        </mxCell>
        <mxCell id="aU81vMfRTdpEFrG1HCS1-90" style="edgeStyle=orthogonalEdgeStyle;rounded=0;orthogonalLoop=1;jettySize=auto;html=1;exitX=0.5;exitY=1;exitDx=0;exitDy=0;entryX=0;entryY=0;entryDx=0;entryDy=15;entryPerimeter=0;fontSize=12;fontStyle=0" edge="1" parent="1" source="aU81vMfRTdpEFrG1HCS1-85" target="aU81vMfRTdpEFrG1HCS1-89">
          <mxGeometry relative="1" as="geometry" />
        </mxCell>
        <mxCell id="aU81vMfRTdpEFrG1HCS1-85" value="Find unique pairs of home, away, scorer, date and minute" style="shape=module;align=left;spacingLeft=20;align=center;verticalAlign=top;whiteSpace=wrap;html=1;fontSize=12;fontStyle=0" vertex="1" parent="1">
          <mxGeometry x="1010.08" y="235" width="120" height="65" as="geometry" />
        </mxCell>
        <mxCell id="aU81vMfRTdpEFrG1HCS1-86" style="edgeStyle=orthogonalEdgeStyle;rounded=0;orthogonalLoop=1;jettySize=auto;html=1;exitX=1;exitY=0.5;exitDx=0;exitDy=0;entryX=0;entryY=0;entryDx=0;entryDy=15;entryPerimeter=0;fontSize=12;fontStyle=0" edge="1" parent="1" source="aU81vMfRTdpEFrG1HCS1-66" target="aU81vMfRTdpEFrG1HCS1-85">
          <mxGeometry relative="1" as="geometry" />
        </mxCell>
        <mxCell id="aU81vMfRTdpEFrG1HCS1-89" value="Replace home,away and date with game id" style="shape=module;align=left;spacingLeft=20;align=center;verticalAlign=top;whiteSpace=wrap;html=1;fontSize=12;fontStyle=0" vertex="1" parent="1">
          <mxGeometry x="1010.08" y="340" width="125" height="50" as="geometry" />
        </mxCell>
        <mxCell id="aU81vMfRTdpEFrG1HCS1-95" style="edgeStyle=orthogonalEdgeStyle;rounded=0;orthogonalLoop=1;jettySize=auto;html=1;exitX=0.5;exitY=1;exitDx=0;exitDy=0;entryX=1;entryY=0.5;entryDx=0;entryDy=0;fontSize=12;fontStyle=0" edge="1" parent="1" source="aU81vMfRTdpEFrG1HCS1-91" target="aU81vMfRTdpEFrG1HCS1-89">
          <mxGeometry relative="1" as="geometry" />
        </mxCell>
        <mxCell id="aU81vMfRTdpEFrG1HCS1-91" value="games" style="html=1;dropTarget=0;whiteSpace=wrap;fillColor=#d5e8d4;strokeColor=#82b366;fontSize=12;fontStyle=0" vertex="1" parent="1">
          <mxGeometry x="1150" y="65" width="110" height="60" as="geometry" />
        </mxCell>
        <mxCell id="aU81vMfRTdpEFrG1HCS1-92" value="" style="shape=module;jettyWidth=8;jettyHeight=4;fontSize=12;fontStyle=0" vertex="1" parent="aU81vMfRTdpEFrG1HCS1-91">
          <mxGeometry x="1" width="20" height="20" relative="1" as="geometry">
            <mxPoint x="-27" y="7" as="offset" />
          </mxGeometry>
        </mxCell>
        <mxCell id="aU81vMfRTdpEFrG1HCS1-96" value="Replace player name with id" style="shape=module;align=left;spacingLeft=20;align=center;verticalAlign=top;whiteSpace=wrap;html=1;fontSize=12;fontStyle=0" vertex="1" parent="1">
          <mxGeometry x="1010.08" y="455" width="125" height="50" as="geometry" />
        </mxCell>
        <mxCell id="aU81vMfRTdpEFrG1HCS1-97" style="edgeStyle=orthogonalEdgeStyle;rounded=0;orthogonalLoop=1;jettySize=auto;html=1;exitX=0.5;exitY=1;exitDx=0;exitDy=0;entryX=0;entryY=0;entryDx=0;entryDy=15;entryPerimeter=0;fontSize=12;fontStyle=0" edge="1" parent="1" source="aU81vMfRTdpEFrG1HCS1-89" target="aU81vMfRTdpEFrG1HCS1-96">
          <mxGeometry relative="1" as="geometry" />
        </mxCell>
        <mxCell id="aU81vMfRTdpEFrG1HCS1-98" value="Replace player name with id" style="shape=module;align=left;spacingLeft=20;align=center;verticalAlign=top;whiteSpace=wrap;html=1;fontSize=12;fontStyle=0" vertex="1" parent="1">
          <mxGeometry x="1010.08" y="550" width="125" height="50" as="geometry" />
        </mxCell>
        <mxCell id="aU81vMfRTdpEFrG1HCS1-99" style="edgeStyle=orthogonalEdgeStyle;rounded=0;orthogonalLoop=1;jettySize=auto;html=1;exitX=0.5;exitY=1;exitDx=0;exitDy=0;entryX=0;entryY=0;entryDx=0;entryDy=15;entryPerimeter=0;fontSize=12;fontStyle=0" edge="1" parent="1" source="aU81vMfRTdpEFrG1HCS1-96" target="aU81vMfRTdpEFrG1HCS1-98">
          <mxGeometry relative="1" as="geometry" />
        </mxCell>
        <mxCell id="aU81vMfRTdpEFrG1HCS1-106" style="edgeStyle=orthogonalEdgeStyle;rounded=0;orthogonalLoop=1;jettySize=auto;html=1;exitX=0.5;exitY=1;exitDx=0;exitDy=0;entryX=0.5;entryY=0;entryDx=0;entryDy=0;fontSize=12;fontStyle=0" edge="1" parent="1" source="aU81vMfRTdpEFrG1HCS1-102" target="aU81vMfRTdpEFrG1HCS1-104">
          <mxGeometry relative="1" as="geometry" />
        </mxCell>
        <mxCell id="aU81vMfRTdpEFrG1HCS1-102" value="Generate ids" style="shape=module;align=left;spacingLeft=20;align=center;verticalAlign=top;whiteSpace=wrap;html=1;fontSize=12;fontStyle=0" vertex="1" parent="1">
          <mxGeometry x="1010.08" y="630" width="125" height="50" as="geometry" />
        </mxCell>
        <mxCell id="aU81vMfRTdpEFrG1HCS1-103" style="edgeStyle=orthogonalEdgeStyle;rounded=0;orthogonalLoop=1;jettySize=auto;html=1;exitX=0.5;exitY=1;exitDx=0;exitDy=0;entryX=0;entryY=0;entryDx=0;entryDy=15;entryPerimeter=0;fontSize=12;fontStyle=0" edge="1" parent="1" source="aU81vMfRTdpEFrG1HCS1-98" target="aU81vMfRTdpEFrG1HCS1-102">
          <mxGeometry relative="1" as="geometry" />
        </mxCell>
        <mxCell id="aU81vMfRTdpEFrG1HCS1-104" value="goals" style="html=1;dropTarget=0;whiteSpace=wrap;fillColor=#d5e8d4;strokeColor=#82b366;fontSize=12;fontStyle=0" vertex="1" parent="1">
          <mxGeometry x="1017.58" y="720" width="110" height="60" as="geometry" />
        </mxCell>
        <mxCell id="aU81vMfRTdpEFrG1HCS1-105" value="" style="shape=module;jettyWidth=8;jettyHeight=4;fontSize=12;fontStyle=0" vertex="1" parent="aU81vMfRTdpEFrG1HCS1-104">
          <mxGeometry x="1" width="20" height="20" relative="1" as="geometry">
            <mxPoint x="-27" y="7" as="offset" />
          </mxGeometry>
        </mxCell>
        <mxCell id="aU81vMfRTdpEFrG1HCS1-107" value="shootouts" style="html=1;dropTarget=0;whiteSpace=wrap;fillColor=#fff2cc;strokeColor=#d6b656;fontSize=12;fontStyle=0" vertex="1" parent="1">
          <mxGeometry x="1270" y="65" width="110" height="60" as="geometry" />
        </mxCell>
        <mxCell id="aU81vMfRTdpEFrG1HCS1-108" value="" style="shape=module;jettyWidth=8;jettyHeight=4;fontSize=12;fontStyle=0" vertex="1" parent="aU81vMfRTdpEFrG1HCS1-107">
          <mxGeometry x="1" width="20" height="20" relative="1" as="geometry">
            <mxPoint x="-27" y="7" as="offset" />
          </mxGeometry>
        </mxCell>
        <mxCell id="aU81vMfRTdpEFrG1HCS1-111" value="Replace home, away, first shooter and winner with country id" style="shape=module;align=left;spacingLeft=20;align=center;verticalAlign=top;whiteSpace=wrap;html=1;fontSize=12;fontStyle=0" vertex="1" parent="1">
          <mxGeometry x="1289.08" y="235" width="120" height="65" as="geometry" />
        </mxCell>
        <mxCell id="aU81vMfRTdpEFrG1HCS1-113" style="edgeStyle=orthogonalEdgeStyle;rounded=0;orthogonalLoop=1;jettySize=auto;html=1;exitX=0.5;exitY=1;exitDx=0;exitDy=0;entryX=0;entryY=0;entryDx=0;entryDy=15;entryPerimeter=0;fontSize=12;fontStyle=0" edge="1" parent="1" source="aU81vMfRTdpEFrG1HCS1-107" target="aU81vMfRTdpEFrG1HCS1-111">
          <mxGeometry relative="1" as="geometry" />
        </mxCell>
        <mxCell id="aU81vMfRTdpEFrG1HCS1-117" style="edgeStyle=orthogonalEdgeStyle;rounded=0;orthogonalLoop=1;jettySize=auto;html=1;exitX=0.5;exitY=1;exitDx=0;exitDy=0;entryX=1;entryY=0.25;entryDx=0;entryDy=0;fontSize=12;fontStyle=0" edge="1" parent="1" source="aU81vMfRTdpEFrG1HCS1-115" target="aU81vMfRTdpEFrG1HCS1-111">
          <mxGeometry relative="1" as="geometry" />
        </mxCell>
        <mxCell id="aU81vMfRTdpEFrG1HCS1-115" value="countries" style="html=1;dropTarget=0;whiteSpace=wrap;fillColor=#d5e8d4;strokeColor=#82b366;fontSize=12;fontStyle=0" vertex="1" parent="1">
          <mxGeometry x="1390" y="65" width="110" height="60" as="geometry" />
        </mxCell>
        <mxCell id="aU81vMfRTdpEFrG1HCS1-116" value="" style="shape=module;jettyWidth=8;jettyHeight=4;fontSize=12;fontStyle=0" vertex="1" parent="aU81vMfRTdpEFrG1HCS1-115">
          <mxGeometry x="1" width="20" height="20" relative="1" as="geometry">
            <mxPoint x="-27" y="7" as="offset" />
          </mxGeometry>
        </mxCell>
        <mxCell id="aU81vMfRTdpEFrG1HCS1-118" value="Replace home away and date with game id" style="shape=module;align=left;spacingLeft=20;align=center;verticalAlign=top;whiteSpace=wrap;html=1;fontSize=12;fontStyle=0" vertex="1" parent="1">
          <mxGeometry x="1289.08" y="350" width="120" height="65" as="geometry" />
        </mxCell>
        <mxCell id="aU81vMfRTdpEFrG1HCS1-119" style="edgeStyle=orthogonalEdgeStyle;rounded=0;orthogonalLoop=1;jettySize=auto;html=1;exitX=0.5;exitY=1;exitDx=0;exitDy=0;entryX=0;entryY=0;entryDx=0;entryDy=35;entryPerimeter=0;fontSize=12;fontStyle=0" edge="1" parent="1" source="aU81vMfRTdpEFrG1HCS1-91" target="aU81vMfRTdpEFrG1HCS1-118">
          <mxGeometry relative="1" as="geometry" />
        </mxCell>
        <mxCell id="aU81vMfRTdpEFrG1HCS1-120" style="edgeStyle=orthogonalEdgeStyle;rounded=0;orthogonalLoop=1;jettySize=auto;html=1;exitX=0.5;exitY=1;exitDx=0;exitDy=0;entryX=0;entryY=0;entryDx=0;entryDy=15;entryPerimeter=0;fontSize=12;fontStyle=0" edge="1" parent="1" source="aU81vMfRTdpEFrG1HCS1-111" target="aU81vMfRTdpEFrG1HCS1-118">
          <mxGeometry relative="1" as="geometry" />
        </mxCell>
        <mxCell id="aU81vMfRTdpEFrG1HCS1-121" value="Generate ids" style="shape=module;align=left;spacingLeft=20;align=center;verticalAlign=top;whiteSpace=wrap;html=1;fontSize=12;fontStyle=0" vertex="1" parent="1">
          <mxGeometry x="1289.08" y="470" width="120" height="65" as="geometry" />
        </mxCell>
        <mxCell id="aU81vMfRTdpEFrG1HCS1-122" style="edgeStyle=orthogonalEdgeStyle;rounded=0;orthogonalLoop=1;jettySize=auto;html=1;exitX=0.5;exitY=1;exitDx=0;exitDy=0;entryX=0;entryY=0;entryDx=0;entryDy=15;entryPerimeter=0;fontSize=12;fontStyle=0" edge="1" parent="1" source="aU81vMfRTdpEFrG1HCS1-118" target="aU81vMfRTdpEFrG1HCS1-121">
          <mxGeometry relative="1" as="geometry" />
        </mxCell>
        <mxCell id="aU81vMfRTdpEFrG1HCS1-123" value="shootouts" style="html=1;dropTarget=0;whiteSpace=wrap;fillColor=#d5e8d4;strokeColor=#82b366;fontSize=12;fontStyle=0" vertex="1" parent="1">
          <mxGeometry x="1304.08" y="720" width="110" height="60" as="geometry" />
        </mxCell>
        <mxCell id="aU81vMfRTdpEFrG1HCS1-124" value="" style="shape=module;jettyWidth=8;jettyHeight=4;fontSize=12;fontStyle=0" vertex="1" parent="aU81vMfRTdpEFrG1HCS1-123">
          <mxGeometry x="1" width="20" height="20" relative="1" as="geometry">
            <mxPoint x="-27" y="7" as="offset" />
          </mxGeometry>
        </mxCell>
        <mxCell id="aU81vMfRTdpEFrG1HCS1-125" style="edgeStyle=orthogonalEdgeStyle;rounded=0;orthogonalLoop=1;jettySize=auto;html=1;exitX=0.5;exitY=1;exitDx=0;exitDy=0;entryX=0.414;entryY=-0.009;entryDx=0;entryDy=0;entryPerimeter=0;fontSize=12;fontStyle=0" edge="1" parent="1" source="aU81vMfRTdpEFrG1HCS1-121" target="aU81vMfRTdpEFrG1HCS1-123">
          <mxGeometry relative="1" as="geometry" />
        </mxCell>
        <mxCell id="aU81vMfRTdpEFrG1HCS1-126" style="edgeStyle=orthogonalEdgeStyle;rounded=0;orthogonalLoop=1;jettySize=auto;html=1;exitX=0.5;exitY=1;exitDx=0;exitDy=0;entryX=0;entryY=0;entryDx=0;entryDy=15;entryPerimeter=0;fontSize=12;fontStyle=0" edge="1" parent="1" source="aU81vMfRTdpEFrG1HCS1-28" target="aU81vMfRTdpEFrG1HCS1-43">
          <mxGeometry relative="1" as="geometry" />
        </mxCell>
        <mxCell id="aU81vMfRTdpEFrG1HCS1-127" style="edgeStyle=orthogonalEdgeStyle;rounded=0;orthogonalLoop=1;jettySize=auto;html=1;exitX=0.5;exitY=1;exitDx=0;exitDy=0;entryX=0.64;entryY=-0.003;entryDx=0;entryDy=0;entryPerimeter=0;" edge="1" parent="1" source="aU81vMfRTdpEFrG1HCS1-19" target="aU81vMfRTdpEFrG1HCS1-28">
          <mxGeometry relative="1" as="geometry" />
        </mxCell>
        <mxCell id="aU81vMfRTdpEFrG1HCS1-128" style="edgeStyle=orthogonalEdgeStyle;rounded=0;orthogonalLoop=1;jettySize=auto;html=1;exitX=0.5;exitY=1;exitDx=0;exitDy=0;entryX=0;entryY=0;entryDx=0;entryDy=15;entryPerimeter=0;" edge="1" parent="1" source="aU81vMfRTdpEFrG1HCS1-15" target="aU81vMfRTdpEFrG1HCS1-10">
          <mxGeometry relative="1" as="geometry" />
        </mxCell>
        <mxCell id="aU81vMfRTdpEFrG1HCS1-129" style="edgeStyle=orthogonalEdgeStyle;rounded=0;orthogonalLoop=1;jettySize=auto;html=1;exitX=0.5;exitY=1;exitDx=0;exitDy=0;entryX=0.896;entryY=-0.029;entryDx=0;entryDy=0;entryPerimeter=0;" edge="1" parent="1" source="aU81vMfRTdpEFrG1HCS1-13" target="aU81vMfRTdpEFrG1HCS1-10">
          <mxGeometry relative="1" as="geometry" />
        </mxCell>
        <mxCell id="aU81vMfRTdpEFrG1HCS1-130" style="edgeStyle=orthogonalEdgeStyle;rounded=0;orthogonalLoop=1;jettySize=auto;html=1;exitX=1;exitY=0.5;exitDx=0;exitDy=0;entryX=0;entryY=0;entryDx=0;entryDy=35;entryPerimeter=0;" edge="1" parent="1" source="aU81vMfRTdpEFrG1HCS1-10" target="aU81vMfRTdpEFrG1HCS1-43">
          <mxGeometry relative="1" as="geometry" />
        </mxCell>
      </root>
    </mxGraphModel>
  </diagram>
</mxfile>
